<?xml version="1.0" standalone="no"?><!DOCTYPE svg PUBLIC "-//W3C//DTD SVG 1.1//EN" "http://www.w3.org/Graphics/SVG/1.1/DTD/svg11.dtd"><svg t="1721346172883" class="icon" viewBox="0 0 1024 1024" version="1.1" xmlns="http://www.w3.org/2000/svg" p-id="15007" xmlns:xlink="http://www.w3.org/1999/xlink" width="128" height="128"><path d="M0 0m273.066667 0l477.866666 0q273.066667 0 273.066667 273.066667l0 477.866666q0 273.066667-273.066667 273.066667l-477.866666 0q-273.066667 0-273.066667-273.066667l0-477.866666q0-273.066667 273.066667-273.066667Z" fill="#FFC667" p-id="15008"></path><path d="M591.496533 785.066667l69.2224-34.133334 39.0144-67.669333V768a17.066667 17.066667 0 0 1-17.066666 17.066667z m-42.427733 0H273.066667a17.066667 17.066667 0 0 1-17.066667-17.066667v-512a17.066667 17.066667 0 0 1 17.066667-17.066667h409.6a17.066667 17.066667 0 0 1 17.066666 17.066667v155.067733a53.1456 53.1456 0 0 0-3.652266 5.4784l-153.6 266.0352 6.6048 102.4zM375.466667 563.2a17.066667 17.066667 0 0 0 17.066666 17.066667h68.266667a17.066667 17.066667 0 0 0 17.066667-17.066667 17.066667 17.066667 0 0 0-17.066667-17.066667h-68.266667a17.066667 17.066667 0 0 0-17.066666 17.066667z m0-85.333333a17.066667 17.066667 0 0 0 17.066666 17.066666h170.666667a17.066667 17.066667 0 0 0 17.066667-17.066666 17.066667 17.066667 0 0 0-17.066667-17.066667h-170.666667a17.066667 17.066667 0 0 0-17.066666 17.066667z m0-85.333334a17.066667 17.066667 0 0 0 17.066666 17.066667h170.666667a17.066667 17.066667 0 0 0 17.066667-17.066667 17.066667 17.066667 0 0 0-17.066667-17.066666h-170.666667a17.066667 17.066667 0 0 0-17.066666 17.066666z m192.3072 305.9712l59.101866 34.133334-55.1424 27.306666z m17.066666-29.559466l102.4-177.3568 59.118934 34.133333-102.4 177.3568z m119.466667-206.933334l17.066667-29.559466a17.066667 17.066667 0 0 1 23.313066-6.2464l29.559467 17.066666a17.066667 17.066667 0 0 1 6.229333 23.313067l-17.066666 29.559467z" fill="#FFFFFF" p-id="15009"></path></svg>