<?xml version="1.0" standalone="no"?><!DOCTYPE svg PUBLIC "-//W3C//DTD SVG 1.1//EN" "http://www.w3.org/Graphics/SVG/1.1/DTD/svg11.dtd"><svg t="1721346131185" class="icon" viewBox="0 0 1024 1024" version="1.1" xmlns="http://www.w3.org/2000/svg" p-id="11392" xmlns:xlink="http://www.w3.org/1999/xlink" width="128" height="128"><path d="M512 0c282.7648 0 512 229.2352 512 512S794.7648 1024 512 1024 0 794.7648 0 512 229.2352 0 512 0z" fill="#1657D9" p-id="11393"></path><path d="M665.6 281.728a390.4 390.4 0 0 0-201.4976 49.92 347.3408 347.3408 0 0 0-119.168 120.4352c-57.344 93.9776-75.52 203.52-87.5008 276.0192l-1.4336 8.7424h45.5168a182.0416 182.0416 0 0 1 39.7952-88.1792 116.3008 116.3008 0 0 1 73.984-36.9792 207.232 207.232 0 0 0 116.608-58.2912 258.176 258.176 0 0 0 65.4336-100.992L563.2 429.6448l10.112-10.0864 12.6464-12.6464A474.496 474.496 0 0 0 665.6 281.728z" fill="#FFFFFF" p-id="11394"></path><path d="M278.7584 755.2c14.1312 0 22.7584-11.2896 22.7584-18.3552 0-7.0656-8.6272-21.9136-22.7584-21.9136-14.144 0-22.7584 14.848-22.7584 21.9136S264.6144 755.2 278.7584 755.2z" fill="#FFFFFF" p-id="11395"></path><path d="M393.3824 720.0896c45.7344-40.0128 103.4752-51.6736 171.1616-35.3664l9.856 2.5344 25.2672 6.912 55.3856 15.36 2.56 0.6528c22.528 5.6448 36.608 7.2064 49.8048 5.3376 7.5264-1.0752 15.1168-3.3408 23.5904-7.1168a19.2 19.2 0 1 1 15.6416 35.0592c-11.6096 5.184-22.6304 8.4864-33.8176 10.0736-17.8432 2.5344-35.3024 0.8832-59.6096-4.8896l-7.7568-1.9328-17.984-4.9408-54.016-14.9888-13.3632-3.584c-58.2272-15.1552-104.6272-6.4-141.44 25.792a19.2 19.2 0 0 1-25.28-28.9024z" fill="#FFFFFF" opacity=".36" p-id="11396"></path></svg>