<?xml version="1.0" standalone="no"?><!DOCTYPE svg PUBLIC "-//W3C//DTD SVG 1.1//EN" "http://www.w3.org/Graphics/SVG/1.1/DTD/svg11.dtd"><svg t="1721346264229" class="icon" viewBox="0 0 1024 1024" version="1.1" xmlns="http://www.w3.org/2000/svg" p-id="17194" xmlns:xlink="http://www.w3.org/1999/xlink" width="128" height="128"><path d="M0 0m170.666667 0l682.666666 0q170.666667 0 170.666667 170.666667l0 682.666666q0 170.666667-170.666667 170.666667l-682.666666 0q-170.666667 0-170.666667-170.666667l0-682.666666q0-170.666667 170.666667-170.666667Z" fill="#E5EBFF" p-id="17195"></path><path d="M599.466667 818.005333H276.394667c-11.548444 0-20.394667-9.102222-20.394667-20.963555V263.68c0-11.861333 8.817778-20.935111 20.394667-20.935111h458.410666c11.548444 0 20.394667 9.102222 20.394667 20.963555V657.92c0 88.064-70.058667 160.056889-155.733333 160.056889z" fill="#9AB3FF" p-id="17196"></path><path d="M438.954667 517.461333h-85.703111a24.746667 24.746667 0 0 1-24.462223-25.173333 24.746667 24.746667 0 0 1 24.462223-25.144889h85.020444a24.746667 24.746667 0 0 1 24.462222 25.144889c0 13.994667-10.865778 25.173333-23.779555 25.173333z m109.511111 125.098667h-195.214222a24.746667 24.746667 0 0 1-24.462223-25.144889 24.746667 24.746667 0 0 1 24.462223-25.173333h194.503111a24.746667 24.746667 0 0 1 24.490666 25.173333c0 13.966222-10.865778 25.144889-23.808 25.144889z" fill="#FFFFFF" p-id="17197"></path><path d="M706.218667 404.935111l-66.645334-49.635555-67.328 49.635555V217.6h133.973334v187.306667z" fill="#396AFC" p-id="17198"></path></svg>