<?xml version="1.0" standalone="no"?><!DOCTYPE svg PUBLIC "-//W3C//DTD SVG 1.1//EN" "http://www.w3.org/Graphics/SVG/1.1/DTD/svg11.dtd"><svg t="1721346338804" class="icon" viewBox="0 0 1024 1024" version="1.1" xmlns="http://www.w3.org/2000/svg" p-id="23950" xmlns:xlink="http://www.w3.org/1999/xlink" width="128" height="128"><path d="M625.44 781.15H168.11a4.31 4.31 0 0 1-4.31-4.31v-438.8a4.31 4.31 0 0 1 4.31-4.31h457.34a4.31 4.31 0 0 1 4.31 4.31v438.8a4.325 4.325 0 0 1-4.32 4.31z" fill="#E77063" p-id="23951"></path><path d="M417.92 177.09l-76.76-79.47c0-0.01-0.01-0.01-0.02-0.02L328 84l-13.84 13.43-80.91 78.55c-5.41 5.25-7.98 13.3-5.23 20.32 5.48 14.02 21.97 16.54 31.38 7.4l48.72-47.31-1.61 184.05c-0.09 10.59 8.46 19.22 19.05 19.22 10.46 0 18.96-8.43 19.05-18.88l1.61-183.1 45.06 46.66c3.74 3.87 8.72 5.81 13.7 5.81 6.33 0 12.67-3.13 16.49-9.44 4.54-7.48 2.55-17.3-3.55-23.62z" p-id="23952"></path><path d="M692.7 400.39c-9.98 0-18.07-8.09-18.07-18.07V318.1c0-28.15-22.89-51.05-51.05-51.05h-196.3c-9.98 0-18.07-8.09-18.07-18.07s8.09-18.07 18.07-18.07h196.31c48.07 0 87.19 39.11 87.19 87.19v64.21c-0.01 9.99-8.1 18.08-18.08 18.08zM692.7 640.54c-9.98 0-18.07 8.09-18.07 18.07v62.2c0 28.15-22.89 51.05-51.05 51.05h-402.7c-28.15 0-51.06-22.9-51.06-51.05V318.1c0-28.15 22.89-51.05 51.05-51.05 9.98 0 18.07-8.09 18.07-18.07s-8.09-18.07-18.07-18.07c-48.07 0-87.19 39.11-87.19 87.19v402.71c0 48.08 39.12 87.19 87.2 87.19h19.33l-58 78.41c-7.92 10.7-5.66 25.79 5.04 33.7 4.31 3.19 9.33 4.72 14.31 4.72 7.39 0 14.67-3.38 19.39-9.76L294 816.31c1.9-2.57 3.18-5.39 3.93-8.31h249.84c0.75 2.91 2.03 5.74 3.93 8.31l73.06 98.76c4.72 6.39 12 9.76 19.39 9.76 4.98 0 10-1.54 14.31-4.72 10.69-7.91 12.95-23 5.04-33.7l-58-78.41h18.1c48.07 0 87.19-39.11 87.19-87.19v-62.2c-0.02-9.98-8.11-18.07-18.09-18.07zM852.51 736.15c-7.47 0.01-14.93-2.14-21.44-6.38l-87.87-57.39c-8.56-1.42-15.09-8.86-15.09-17.83 0-9.98 8.09-18.07 18.07-18.07h2.78c3.51 0 6.94 1.02 9.88 2.94l92 60.09c0.38 0.24 1.52 0.99 3.14 0.12 1.6-0.86 1.6-2.24 1.6-2.69V354.83c0-0.45 0-1.82-1.6-2.69-1.62-0.86-2.76-0.11-3.14 0.13l-94.78 61.91c-8.34 5.45-19.55 3.11-25.01-5.25-5.46-8.36-3.11-19.55 5.25-25.01l94.78-61.91a39.159 39.159 0 0 1 40.11-1.65 39.154 39.154 0 0 1 20.54 34.47v342.12c0 14.41-7.87 27.61-20.54 34.47a39.237 39.237 0 0 1-18.68 4.73z" fill="#0C0303" p-id="23953"></path></svg>