<?xml version="1.0" standalone="no"?><!DOCTYPE svg PUBLIC "-//W3C//DTD SVG 1.1//EN" "http://www.w3.org/Graphics/SVG/1.1/DTD/svg11.dtd"><svg t="1721346409410" class="icon" viewBox="0 0 1024 1024" version="1.1" xmlns="http://www.w3.org/2000/svg" p-id="30091" xmlns:xlink="http://www.w3.org/1999/xlink" width="128" height="128"><path d="M0 0h1024v1024H0V0z" fill="#202425" opacity=".01" p-id="30092"></path><path d="M853.333333 102.4a136.533333 136.533333 0 0 1 136.533334 136.533333v409.6a136.533333 136.533333 0 0 1-136.533334 136.533334v163.601066a17.066667 17.066667 0 0 1-29.149866 12.049067L648.533333 785.066667h-136.533333a136.533333 136.533333 0 0 1-136.533333-136.533334V238.933333a136.533333 136.533333 0 0 1 136.533333-136.533333h341.333333z" fill="#FFAA44" p-id="30093"></path><path d="M170.666667 102.4a136.533333 136.533333 0 0 0-136.533334 136.533333v409.6a136.533333 136.533333 0 0 0 136.533334 136.533334v163.601066a17.066667 17.066667 0 0 0 29.149866 12.049067L375.466667 785.066667h273.066666a136.533333 136.533333 0 0 0 136.533334-136.533334V238.933333a136.533333 136.533333 0 0 0-136.533334-136.533333H170.666667z" fill="#FF7744" p-id="30094"></path><path d="M409.6 375.466667a68.266667 68.266667 0 1 1 0 136.533333 68.266667 68.266667 0 0 1 0-136.533333z m204.8 0a68.266667 68.266667 0 1 1 0 136.533333 68.266667 68.266667 0 0 1 0-136.533333zM204.8 375.466667a68.266667 68.266667 0 1 1 0 136.533333 68.266667 68.266667 0 0 1 0-136.533333z" fill="#FFFFFF" p-id="30095"></path></svg>