<?xml version="1.0" standalone="no"?><!DOCTYPE svg PUBLIC "-//W3C//DTD SVG 1.1//EN" "http://www.w3.org/Graphics/SVG/1.1/DTD/svg11.dtd"><svg t="1720873316929" class="icon" viewBox="0 0 1024 1024" version="1.1" xmlns="http://www.w3.org/2000/svg" p-id="15773" id="mx_n_1720873316930" xmlns:xlink="http://www.w3.org/1999/xlink" width="128" height="128"><path d="M383.287928 891.023833c-73.440751 73.437533-189.009931 76.942068-258.131964 7.820035-69.122032-69.122032-65.617498-184.691212 7.820035-258.131963L701.157881 72.533241c40.059177-40.059177 103.098959-41.970741 140.799253-4.267229l113.779905 113.779904c37.703512 37.700294 35.791948 100.740076-4.267229 140.799253L383.287928 891.023833z m299.378627-435.913869l-113.776686-113.776686L197.798621 712.424525c-33.83533 33.83533-35.795166 86.734811-4.376645 118.153332 31.106363 31.103145 83.262458 29.494084 117.133187-3.369374l1.020145-1.007272 371.091247-371.091247z m204.801254-204.801254l-113.779905-113.776686-136.532023 136.535242 113.776686 113.776686 136.535242-136.532024zM879.789371 504.479166l0.434446-0.041835 0.444101 0.01609c1.383792-0.032181 2.63886 0.80453 3.144105 2.094997l0.450537 1.477118 0.643624 1.982363 0.675806 1.972709 1.132778 3.128014 0.418356 1.097379 0.923601 2.358883 0.508463 1.255068 1.110252 2.651732c0.389393 0.913947 0.80453 1.853638 1.235759 2.822292l0.875329 1.930873 0.846366 1.811803a184.259984 184.259984 0 0 0 8.833744 16.431728c0.946128 1.557571 1.930873 3.131232 2.963889 4.71133l1.580098 2.378192 0.791658 1.158524 1.718477 2.439336a153.040987 153.040987 0 0 0 6.178793 8.022777 140.773508 140.773508 0 0 0 6.854599 7.700965l0.450537 0.460191h0.019309l1.792493 1.834329 1.815021 1.786058 0.765913 0.733731 1.271158 1.184269 1.461027 1.332302 2.4329 2.127179 2.091779 1.753876 1.895474 1.531826 2.568061 1.995235 2.210849 1.647678 2.191541 1.57688c1.16496 0.820621 2.32992 1.618715 3.491662 2.394282l2.053161 1.345175 2.191541 1.393447 2.011326 1.23254 1.734567 1.029799 1.660551 0.975091 2.12396 1.200359 2.091779 1.14887 2.603461 1.374138 2.156141 1.103815 1.956618 0.971873 2.819074 1.345175 3.237431 1.480336 2.648514 1.148869 2.648514 1.107034 2.400718 0.959 2.317048 0.884983 0.946128 0.350776 1.663768 0.59857 1.181051 0.408702 2.088561 0.698332 2.088561 0.662933 0.405483 0.119071c1.135997 0.460191 1.918 1.496427 2.069252 2.690349l0.025745 0.450537c0.138379 1.345175-0.540644 2.622769-1.692732 3.269612l-0.42801 0.196305-0.901074 0.27354-2.024198 0.643625-2.104652 0.711205-1.860074 0.666151-1.512517 0.553517-2.156142 0.823839-2.754712 1.103815-2.777239 1.161742-2.371755 1.036235-2.867346 1.309776-1.930873 0.910728-2.500481 1.222887-3.379027 1.728131-2.645296 1.412755-3.469135 1.937309-1.943746 1.132779-2.452208 1.480336-2.477954 1.544698-2.265557 1.470682-1.52539 1.020144-2.027417 1.393447-2.130396 1.512517-1.966272 1.448155-1.892256 1.4385-1.325866 1.039453-1.924436 1.551135-1.963055 1.634806-1.126342 0.965436-1.834329 1.621933c-1.596188 1.4385-3.16985 2.925272-4.720985 4.463535l-1.280812 1.287249a129.928438 129.928438 0 0 0-4.852927 5.168303l-2.020981 2.323483 0.662933-0.772349c-1.316212 1.522171-2.58737 3.060434-3.813474 4.60835l-0.968654 1.235759c-0.843148 1.087725-1.663769 2.17545-2.465081 3.263175l-1.238977 1.715259-0.605007 0.852802c-0.884983 1.261504-1.741004 2.519789-2.574497 3.774857l-1.802148 2.790111-1.184269 1.895474a175.097992 175.097992 0 0 0-4.653404 8.025995l-1.312993 2.452208-0.389393 0.746605c-0.556735 1.068416-1.087725 2.120742-1.602624 3.153759l-0.476282 0.968654a187.655102 187.655102 0 0 0-4.505371 9.937559l-1.084506 2.654951-0.955783 2.442554-1.235758 3.34041-0.5149 1.477118-0.85602 2.561625-0.640406 2.091779a3.353283 3.353283 0 0 1-2.69035 2.069252l-0.450537 0.025745a3.353283 3.353283 0 0 1-3.269611-1.692732l-0.196306-0.424792-0.431228-1.432064-0.630752-1.943746-1.029799-2.970326-1.07807-2.909182-0.289631-0.759476-0.952564-2.413592-0.524554-1.287248a183.516598 183.516598 0 0 0-1.879383-4.392736l-0.563171-1.258286-1.152088-2.497262-1.190705-2.48439-1.100597-2.22694-1.361266-2.645296-1.184268-2.220504-0.997618-1.818238a178.090845 178.090845 0 0 0-2.320266-4.038743l-0.791658-1.31943-1.274376-2.082124-1.602624-2.513353-0.856021-1.316212a163.586771 163.586771 0 0 0-3.453044-5.010615 141.201518 141.201518 0 0 0-24.071549-26.073221l-2.001672-1.647678-2.44899-1.940527-2.371756-1.795712a155.618703 155.618703 0 0 0-6.191665-4.373427l-2.243031-1.480336-1.522172-0.971873-2.407155-1.496426-1.377356-0.830276-2.532661-1.483554-1.956618-1.107033a182.950209 182.950209 0 0 0-5.033142-2.706441l-2.413591-1.222886-2.336357-1.152087-3.137668-1.477118-0.836712-0.386175-1.28403-0.569607-1.843984-0.807749-2.371755-1.01049-2.9478-1.193923-3.025034-1.161742-2.645296-0.959-2.230158-0.765913-3.314665-1.039453a3.353283 3.353283 0 0 1-2.111088-3.012162l0.016091-0.444101a3.301793 3.301793 0 0 1 1.683077-2.951017l0.428011-0.199524 2.323483-0.717641 2.394283-0.80453 2.156141-0.765913 1.312994-0.482718 1.847201-0.698333 2.864129-1.139215 2.416809-1.000835 2.564843-1.103816 2.194759-0.991182 2.580933-1.206795 0.875329-0.418356 2.767585-1.351611 2.049943-1.049108 1.486772-0.782003 1.512517-0.810967 1.493209-0.820621 2.728967-1.535044 2.046725-1.203577 3.079742-1.866511c0.817403-0.514899 1.634806-1.033017 2.458645-1.567225l1.583316-1.042671 1.963054-1.325866 2.143269-1.493209 2.040289-1.467463 1.615497-1.200359 2.300957-1.769967 2.3975-1.924437 2.059598-1.718477 1.934091-1.679859 0.997618-0.89142c2.317047-2.091779 4.595478-4.289756 6.806327-6.597149l0.016091-0.003218 0.328248-0.331467a144.204025 144.204025 0 0 0 14.259496-17.410037l1.515736-2.204413 1.461027-2.201195 0.946128-1.464246 1.477117-2.362101 1.399883-2.317047 1.142433-1.956618c0.553517-0.959 1.087725-1.908346 1.609061-2.851256l1.145651-2.104651 0.820621-1.554353 0.489155-0.94291a187.165948 187.165948 0 0 0 3.131232-6.365444l1.107034-2.407155c0.440883-0.975091 0.859238-1.924437 1.255067-2.844819l1.132779-2.680696 0.933255-2.317047 0.772349-1.975927 0.997618-2.671041 1.029799-2.951017 0.965437-2.986417 0.267104-0.89142c0.444101-1.11347 1.435282-1.885819 2.577715-2.069252zM259.341977 85.370328l0.386175-0.038618 0.386175 0.016091a2.905964 2.905964 0 0 1 2.770802 1.843984l0.395829 1.300121 0.56639 1.74744 0.595352 1.737785 0.997618 2.754712 0.370084 0.965437 0.814184 2.078906 0.447319 1.107034 0.978309 2.333138c0.341121 0.80453 0.707987 1.631588 1.087725 2.48439l0.772349 1.705604 0.743387 1.592971a162.280214 162.280214 0 0 0 7.781417 14.468674c0.830275 1.374138 1.702386 2.761148 2.609897 4.151377l1.390228 2.091779 0.698333 1.020144 1.512517 2.152923a134.784584 134.784584 0 0 0 5.438625 7.063777 123.971695 123.971695 0 0 0 6.040414 6.780582l0.395829 0.405484 0.019309 0.003218 1.57688 1.612279 1.599406 1.573661 0.675806 0.643624 1.119906 1.049108 1.287248 1.171396 2.140051 1.872947 1.840766 1.544698 1.670205 1.351611 2.262339 1.753877 1.946964 1.451372 1.930873 1.390229c1.026581 0.720859 2.049943 1.425628 3.073306 2.107869l1.808584 1.184269 1.930873 1.226104 1.769967 1.084507 1.528608 0.910729 1.464245 0.85602 1.86651 1.06198 1.843984 1.007272 2.294521 1.210014 1.898691 0.971873 1.724913 0.85602 2.477954 1.184269 2.854474 1.303339 2.333138 1.013708 2.333138 0.975091 2.114306 0.843148 2.040289 0.778785 0.833493 0.30894 1.464246 0.527772 1.039453 0.360429 1.840765 0.614662 1.837548 0.585698 0.357211 0.10298c1.000836 0.405483 1.692732 1.31943 1.824675 2.368537l0.022527 0.402265a2.954236 2.954236 0 0 1-1.493208 2.877001l-0.376521 0.173779-0.791657 0.238141-1.78284 0.569607-1.853638 0.624316-1.641242 0.585698-1.329084 0.489154-1.898692 0.724078-2.429681 0.971872-2.445773 1.026581-2.085343 0.910728-2.526225 1.152088-1.699168 0.80453-2.204413 1.074853-2.976763 1.522171-2.326702 1.245413-3.057215 1.705605-1.712041 0.997617-2.159359 1.30334-2.181887 1.361265-1.995235 1.296903-1.345175 0.897856-1.786057 1.226104-1.876165 1.335521-1.731349 1.274376-1.663769 1.264722-1.168178 0.913946-1.69595 1.367702-1.728132 1.441718-0.991181 0.849584-1.615497 1.428846c-1.406319 1.264722-2.793329 2.574497-4.157813 3.929327l-1.129561 1.132778a114.433183 114.433183 0 0 0-4.273665 4.553642l-1.779621 2.043507 0.58248-0.679023c-1.158524 1.341957-2.27843 2.696786-3.359719 4.061269l-0.852802 1.087725c-0.740168 0.955782-1.464245 1.914782-2.169014 2.873783l-1.094162 1.512517-0.53099 0.749822c-0.778785 1.107034-1.535044 2.217286-2.265557 3.321102l-1.589752 2.458645-1.042672 1.670205a154.209165 154.209165 0 0 0-4.096668 7.066994l-1.158524 2.162578-0.341121 0.656497c-0.489154 0.939691-0.959 1.86651-1.409537 2.777239l-0.418356 0.852802a165.273067 165.273067 0 0 0-3.971162 8.753291l-0.955782 2.339574-0.83993 2.149705-1.087725 2.941363-0.456973 1.300121-0.753041 2.252685-0.563171 1.847202a2.954236 2.954236 0 0 1-2.368537 1.821457l-0.399047 0.022527a2.954236 2.954236 0 0 1-2.877001-1.493209l-0.173779-0.373302-0.379738-1.258285-0.556735-1.712041-0.90751-2.619551-0.946128-2.561625a150.875191 150.875191 0 0 0-0.25745-0.666151l-0.836711-2.127178-0.46341-1.129561c-0.505245-1.222886-1.055544-2.519789-1.657332-3.874618l-0.495591-1.107034-1.013708-2.197977-1.04589-2.188323-0.971873-1.963054-1.197141-2.326702-1.042671-1.953399-0.881765-1.605843a156.841589 156.841589 0 0 0-2.043508-3.556024l-0.695114-1.16496-1.123124-1.831111-1.409537-2.214068-0.756259-1.158524a144.065646 144.065646 0 0 0-3.037907-4.408826 124.35787 124.35787 0 0 0-21.200984-22.967734l-1.763531-1.451372-2.159359-1.705605-2.088561-1.586534a137.053359 137.053359 0 0 0-5.451498-3.848873l-1.975927-1.303339-1.341956-0.856021-2.120743-1.319429-1.210013-0.730514-2.230158-1.306557-1.724914-0.975091a161.131345 161.131345 0 0 0-4.431353-2.38141l-2.12396-1.081289-2.059598-1.013708-2.767584-1.300121-0.733732-0.337903-1.129561-0.505245-1.625151-0.707987-2.091779-0.891419-2.590588-1.052326-2.671041-1.023363-2.323484-0.843148-1.966272-0.675805-2.918836-0.913947a2.954236 2.954236 0 0 1-1.860074-2.65495l0.012872-0.389393a2.905964 2.905964 0 0 1 1.480336-2.597024l0.379738-0.176996 2.046726-0.63397 2.111087-0.707987 1.895474-0.675806 1.158524-0.418355 1.628369-0.621098 2.523008-1.004054 2.12396-0.881765 2.259121-0.971873 1.930873-0.868893 2.27843-1.06198 0.769131-0.370084 2.436118-1.190705 1.808584-0.926819 1.309776-0.688678 1.329084-0.714423 1.316212-0.720859 2.403936-1.351611 1.802149-1.06198 2.712876-1.64446c0.717641-0.450537 1.441718-0.90751 2.165796-1.377356l1.393446-0.920383 1.73135-1.168178 1.885819-1.312994 1.795712-1.293684 1.422409-1.055544 2.027417-1.560789 2.111088-1.692732 1.81502-1.512517 1.705605-1.480336 0.875329-0.785222a114.256187 114.256187 0 0 0 5.99536-5.811927h0.012873l0.289631-0.292849a126.999948 126.999948 0 0 0 12.560328-15.334349l1.332302-1.943746 1.287249-1.934091 0.833493-1.293685 1.300121-2.078906 1.232541-2.040289 1.007272-1.724913c0.485936-0.843148 0.959-1.679859 1.415973-2.510135l1.010491-1.853638 0.720859-1.367702 0.431228-0.830275c0.997618-1.937309 1.918-3.813474 2.75793-5.605968l0.975091-2.120742c0.386175-0.859238 0.756259-1.69595 1.107034-2.506917l0.997618-2.358883 0.823839-2.037071 0.675805-1.744221 0.878547-2.349229 0.910729-2.600242 0.849584-2.632424 0.231705-0.785221a2.954236 2.954236 0 0 1 2.271993-1.821457zM99.182505 307.40784l0.273541-0.025745 0.279976 0.009655a2.075688 2.075688 0 0 1 1.975927 1.31943l0.283195 0.926819 0.402265 1.248631 0.424792 1.238977 0.714423 1.963054 0.263886 0.691896 0.579262 1.483554 0.321812 0.78844 0.695114 1.666987c0.247795 0.572826 0.505245 1.16496 0.778785 1.773185l0.547081 1.216449 0.534208 1.139216a115.820194 115.820194 0 0 0 5.55126 10.326951c0.595352 0.978309 1.21645 1.966272 1.86651 2.960672l0.991182 1.493209 0.498809 0.727295 1.07807 1.535044a96.199307 96.199307 0 0 0 3.884273 5.042797 88.485469 88.485469 0 0 0 4.312283 4.840054l0.279976 0.289631h0.012873l1.126342 1.155306 1.142434 1.119906 0.482718 0.46341 0.794876 0.743386 0.920383 0.836711 1.528607 1.338739 1.312994 1.100597 1.190705 0.965437 1.615497 1.255067 1.390228 1.033017 1.377356 0.991182c0.733732 0.514899 1.464245 1.016926 2.194759 1.506081l1.290467 0.846366 1.377356 0.872111 1.264722 0.775567 1.090943 0.65006 1.042671 0.611443 1.335521 0.756259 1.312993 0.720859 1.641242 0.862457 1.351611 0.695114 1.232541 0.611443 1.769967 0.843148 2.033853 0.933255 1.666987 0.720859 1.663768 0.695115 1.512517 0.601788 1.454591 0.556735 0.592135 0.222051 1.045889 0.37652 0.740168 0.25745 1.316212 0.437664 1.312993 0.418356 0.254232 0.074017c0.714423 0.289631 1.206796 0.939691 1.300121 1.689514l0.016091 0.286412a2.10787 2.10787 0 0 1-1.06198 2.053162l-0.270323 0.125507-0.566389 0.17056-1.271158 0.402265-1.322648 0.450537-1.171396 0.418356-0.949346 0.347557-1.354829 0.5149-1.734568 0.695114-1.744221 0.730514-1.489991 0.65006-1.802148 0.823839-1.213232 0.572826-1.573661 0.769131-2.12396 1.084507-1.660551 0.888201-2.181886 1.222887-1.222887 0.707986-1.54148 0.930037-1.557571 0.971873-1.422409 0.923601-0.959 0.643624-1.274377 0.875329-1.338738 0.952564-1.235759 0.907511-1.190705 0.904292-0.833493 0.653278-1.210014 0.975091-1.23254 1.029799-0.707987 0.605007-1.152088 1.020145c-1.004054 0.901074-1.995235 1.834329-2.967108 2.806201l-0.80453 0.804531a81.66627 81.66627 0 0 0-3.050779 3.250303l-1.271158 1.461027 0.418355-0.485937c-0.830275 0.959-1.628369 1.924437-2.400718 2.89631l-0.611443 0.778785c-0.527772 0.682242-1.042671 1.364484-1.544699 2.049944l-0.778785 1.07807-0.379738 0.537427c-0.556735 0.791658-1.094161 1.583316-1.618716 2.371755l-1.135996 1.753876-0.743386 1.190705a110.056538 110.056538 0 0 0-2.922055 5.046015l-0.827057 1.54148-0.244577 0.469846c-0.350775 0.669369-0.68546 1.332302-1.007272 1.979145l-0.299286 0.611443a117.976335 117.976335 0 0 0-2.831947 6.243155l-0.682241 1.673424-0.598571 1.531826-0.778785 2.101433-0.325031 0.926819-0.537426 1.609061-0.402265 1.319429a2.10787 2.10787 0 0 1-1.689514 1.300122l-0.286413 0.01609a2.10787 2.10787 0 0 1-2.053161-1.065198l-0.125507-0.267104-0.270322-0.901074-0.395829-1.222886-0.646843-1.866511-0.675805-1.827893a107.697655 107.697655 0 0 0-0.183433-0.476282l-0.598571-1.518953-0.331466-0.804531a115.350348 115.350348 0 0 0-1.181051-2.767584l-0.353993-0.78844-0.720859-1.567225-0.749823-1.564007-0.691896-1.396665-0.85602-1.663769-0.743386-1.396664-0.630752-1.142434c-0.463409-0.836712-0.949346-1.683078-1.457809-2.542316l-0.495591-0.827057-0.801312-1.306557-1.007272-1.580098-0.537426-0.827057a102.796456 102.796456 0 0 0-2.169014-3.150541 88.755792 88.755792 0 0 0-15.131608-16.389893l-1.258285-1.036235-1.54148-1.219668-1.489991-1.126343a97.798713 97.798713 0 0 0-3.893927-2.748275l-1.409537-0.933256-0.955782-0.611443-1.512517-0.939691-0.865675-0.521336-1.59297-0.933255-1.229322-0.695114a115.009227 115.009227 0 0 0-3.163414-1.702387l-1.512517-0.769131-1.4739-0.724077-1.972708-0.926819-0.524554-0.241359-0.80453-0.36043-1.161742-0.508463-1.48999-0.63397-1.853638-0.749822-1.90191-0.730514-1.660551-0.601789-1.403101-0.482718-2.085343-0.653278a2.10787 2.10787 0 0 1-1.325866-1.895474l0.009655-0.276759a2.075688 2.075688 0 0 1 1.058762-1.853638l0.270322-0.128724 1.457809-0.450537 1.506081-0.505245 1.351611-0.482719 0.830275-0.299285 1.158524-0.440883 1.802148-0.717641 1.518953-0.627533 1.609061-0.695115 1.383792-0.621097 1.621934-0.759477 0.54708-0.260668 1.737786-0.852802 1.293685-0.659715 0.933255-0.492372 0.949346-0.508464 0.939691-0.514899 1.715259-0.965436 1.287249-0.756259 1.934091-1.174614c0.514899-0.321812 1.029799-0.646842 1.544698-0.981527l0.997618-0.656497 1.235758-0.836712 1.345175-0.933255 1.280812-0.926819 1.016927-0.753041 1.448155-1.11347 1.50608-1.210013 1.293685-1.078071 1.21645-1.058762 0.627534-0.556735a81.547199 81.547199 0 0 0 4.280102-4.151377h0.006436l0.209178-0.20596a90.641611 90.641611 0 0 0 8.962468-10.944831l0.952564-1.383792 0.917165-1.383792 0.595352-0.923601 0.926819-1.483554 0.881766-1.457809 0.717641-1.229323c0.347557-0.601789 0.68546-1.197141 1.01049-1.789275l0.720859-1.325866 0.514899-0.975091 0.30894-0.592135c0.711205-1.383792 1.367702-2.722531 1.966272-4.003343l0.698333-1.512517c0.27354-0.611443 0.537426-1.210014 0.78844-1.789275l0.707986-1.683078 0.592135-1.454591 0.482718-1.245413 0.627534-1.676641 0.65006-1.856856 0.605007-1.876165 0.167342-0.559953a2.10787 2.10787 0 0 1 1.618715-1.30334zM906.219803 918.770477c1.930873 4.93338 2.629205 9.493458 2.091779 13.677016-0.537426 4.183558-1.930873 7.7782-4.183558 10.780708-2.252685 3.002507-5.255192 5.364609-9.01074 7.079867-3.755548 1.715259-7.884398 2.574497-12.389768 2.574497-7.507878 0-13.731725-1.609061-18.665105-4.827182-4.93338-3.218122-8.904542-9.332552-11.90705-18.343293l-12.550674-36.686585h-84.958408l-12.550674 36.686585c-2.358883 7.079867-5.953525 12.71158-10.780707 16.895138-4.827182 4.183558-11.318133 6.275337-19.469635 6.275337-4.720984 0-8.956032-0.965436-12.71158-2.896309-3.755548-1.930873-6.758055-4.50537-9.01074-7.723492-2.252685-3.218122-3.646132-6.864253-4.183558-10.941613-0.537426-4.07736 0.054708-8.260918 1.769967-12.550674l83.027535-220.441324h53.099005l82.383911 220.441324z m-135.161104-72.729546h52.455381l-26.066785-76.913105-26.388596 76.913105zM935.826521 698.329153h54.708066v228.80844c0 8.151502-2.680695 14.481547-8.045304 18.986917-5.364609 4.50537-11.800852 6.758055-19.308729 6.758055s-13.944121-2.252685-19.308729-6.758055c-5.364609-4.50537-8.045304-10.835415-8.045304-18.986917v-228.80844z" p-id="15774" data-spm-anchor-id="a313x.search_index.0.i2.2b8f3a81HB2EKB" class="" fill="#e2a03c"></path></svg>