<?xml version="1.0" standalone="no"?><!DOCTYPE svg PUBLIC "-//W3C//DTD SVG 1.1//EN" "http://www.w3.org/Graphics/SVG/1.1/DTD/svg11.dtd"><svg t="1720279449232" class="icon" viewBox="0 0 1024 1024" version="1.1" xmlns="http://www.w3.org/2000/svg" p-id="12915" xmlns:xlink="http://www.w3.org/1999/xlink" width="128" height="128"><path d="M792.917333 758.442667H231.082667v-529.066667h561.834666z m-481.28-80.725334h400.725334V309.418667H311.637333z" fill="#2EE5D3" p-id="12916"></path><path d="M137.898667 386.56h48.469333V600.746667H137.898667zM63.658667 445.098667h48.469333v96.938666H63.658667zM837.632 386.56h48.469333V600.746667h-48.469333zM911.872 445.098667h48.469333v96.938666h-48.469333z" fill="#0ABCA2" p-id="12917"></path><path d="M411.306667 473.941333m-39.765334 0a39.765333 39.765333 0 1 0 79.530667 0 39.765333 39.765333 0 1 0-79.530667 0Z" fill="#2EE5D3" p-id="12918"></path><path d="M609.962667 473.941333m-39.765334 0a39.765333 39.765333 0 1 0 79.530667 0 39.765333 39.765333 0 1 0-79.530667 0Z" fill="#2EE5D3" p-id="12919"></path><path d="M512 169.301333a60.928 60.928 0 0 0-60.928 60.928h121.685333A60.757333 60.757333 0 0 0 512 169.301333z" fill="#0ABCA2" p-id="12920"></path><path d="M298.154667 789.674667h427.861333v32.256H298.154667z" fill="#2EE5D3" p-id="12921"></path></svg>