<?xml version="1.0" standalone="no"?><!DOCTYPE svg PUBLIC "-//W3C//DTD SVG 1.1//EN" "http://www.w3.org/Graphics/SVG/1.1/DTD/svg11.dtd"><svg t="1720279417472" class="icon" viewBox="0 0 1024 1024" version="1.1" xmlns="http://www.w3.org/2000/svg" p-id="8554" xmlns:xlink="http://www.w3.org/1999/xlink" width="128" height="128"><path d="M256 723.968L756.736 223.232l156.672 178.176L409.6 891.562667l-153.6-167.594667z" fill="#3FE699" p-id="8555"></path><path d="M974.848 366.250667l-317.098667-317.098667a51.2 51.2 0 0 0-72.362666 0L49.152 585.386667A51.2 51.2 0 0 0 34.133333 621.568v317.098667A51.2 51.2 0 0 0 85.333333 989.866667h317.098667a51.2 51.2 0 0 0 36.181333-15.018667l536.234667-536.234667a51.2 51.2 0 0 0 0-72.362666zM136.533333 672.085333L351.914667 887.466667H136.533333z m302.421334 157.354667l-244.736-244.394667L621.568 157.696l244.394667 244.394667z" fill="#2D515E" p-id="8556"></path></svg>