<?xml version="1.0" standalone="no"?><!DOCTYPE svg PUBLIC "-//W3C//DTD SVG 1.1//EN" "http://www.w3.org/Graphics/SVG/1.1/DTD/svg11.dtd"><svg t="1719557780277" class="icon" viewBox="0 0 1024 1024" version="1.1" xmlns="http://www.w3.org/2000/svg" p-id="18240" id="mx_n_1719557780278" width="128" height="128" xmlns:xlink="http://www.w3.org/1999/xlink"><path d="M512.017738 1024a511.992515 511.992515 0 1 1 511.982262-511.992515 513.499703 513.499703 0 0 1-511.982262 511.992515z" fill="#B5B5B5" p-id="18241"></path><path d="M1024.307589 529.786142a83.623257 83.623257 0 0 0-11.667884-17.224997 64.829555 64.829555 0 0 0-6.715698-6.510638c-0.287083-0.338348-0.533155-0.697202-0.830491-1.035551a64.911579 64.911579 0 0 0-6.715698-6.510638c-0.287083-0.338348-0.533155-0.707455-0.830491-1.045804a64.942338 64.942338 0 0 0-6.715698-6.510638c-0.287083-0.338348-0.543408-0.697202-0.840744-1.035551a64.819302 64.819302 0 0 0-6.705445-6.510638c-0.287083-0.338348-0.543408-0.707455-0.840744-1.045803a64.942338 64.942338 0 0 0-6.705445-6.500386c-0.297336-0.348601-0.543408-0.707455-0.840744-1.045803a64.819302 64.819302 0 0 0-6.705445-6.510639c-0.297336-0.338348-0.543408-0.697202-0.840744-1.03555a64.952591 64.952591 0 0 0-6.715698-6.510639c-0.287083-0.338348-0.533155-0.707455-0.830491-1.045803a64.901326 64.901326 0 0 0-6.715698-6.500386c-0.287083-0.348601-0.533155-0.717708-0.830491-1.045803a64.860314 64.860314 0 0 0-6.715698-6.510639c-0.287083-0.338348-0.543408-0.707455-0.840744-1.045803a64.901326 64.901326 0 0 0-6.705445-6.500386c-0.297336-0.348601-0.543408-0.707455-0.840744-1.045803a64.860314 64.860314 0 0 0-6.705445-6.510639c-0.297336-0.338348-0.543408-0.697202-0.840744-1.03555a64.952591 64.952591 0 0 0-6.715698-6.510639c-0.287083-0.348601-0.533155-0.707455-0.83049-1.045803a64.921832 64.921832 0 0 0-6.715699-6.510639c-0.287083-0.338348-0.533155-0.697202-0.83049-1.03555a64.860314 64.860314 0 0 0-6.715698-6.510638c-0.287083-0.338348-0.533155-0.707455-0.840744-1.045804a64.911579 64.911579 0 0 0-6.705445-6.500385c-0.287083-0.348601-0.543408-0.717708-0.840744-1.045804a64.860314 64.860314 0 0 0-6.705445-6.510638c-0.297336-0.338348-0.543408-0.707455-0.840744-1.045804a64.901326 64.901326 0 0 0-6.705445-6.500385c-0.297336-0.348601-0.543408-0.707455-0.840744-1.045804a64.942338 64.942338 0 0 0-6.715698-6.510638c-0.287083-0.338348-0.533155-0.697202-0.830491-1.035551a64.798796 64.798796 0 0 0-6.715698-6.510638c-0.287083-0.338348-0.533155-0.707455-0.830491-1.045804a64.932085 64.932085 0 0 0-6.715698-6.510638c-0.287083-0.338348-0.543408-0.697202-0.840744-1.03555a64.798796 64.798796 0 0 0-6.705445-6.510639c-0.287083-0.338348-0.543408-0.707455-0.840744-1.045803a64.932085 64.932085 0 0 0-6.705445-6.500386c-0.297336-0.348601-0.543408-0.707455-0.840744-1.045803a64.911579 64.911579 0 0 0-6.705445-6.510639c-0.297336-0.338348-0.543408-0.697202-0.840744-1.03555a64.839808 64.839808 0 0 0-6.715698-6.510639c-0.287083-0.338348-0.533155-0.707455-0.830491-1.045803a64.942338 64.942338 0 0 0-6.715698-6.510639c-0.287083-0.338348-0.533155-0.697202-0.830491-1.03555a64.809049 64.809049 0 0 0-6.715698-6.510639c-0.287083-0.338348-0.543408-0.707455-0.840744-1.045803a64.942338 64.942338 0 0 0-6.705445-6.510639c-0.297336-0.338348-0.543408-0.697202-0.840744-1.03555a64.921832 64.921832 0 0 0-6.705445-6.510639c-0.297336-0.338348-0.543408-0.707455-0.840744-1.03555a64.850061 64.850061 0 0 0-6.715698-6.510639c-0.287083-0.338348-0.533155-0.707455-0.830491-1.045803A64.911579 64.911579 0 0 0 787.033262 287.087992c-0.287083-0.338348-0.533155-0.697202-0.83049-1.035551a64.850061 64.850061 0 0 0-6.715699-6.510638c-0.287083-0.338348-0.533155-0.707455-0.840743-1.045804a64.921832 64.921832 0 0 0-6.705445-6.500385c-0.287083-0.348601-0.543408-0.717708-0.840744-1.045804a64.942338 64.942338 0 0 0-6.705445-6.510638c-0.297336-0.338348-0.543408-0.707455-0.840744-1.045804a64.829555 64.829555 0 0 0-6.705445-6.500385c-0.297336-0.338348-0.543408-0.707455-0.840744-1.045804a78.527529 78.527529 0 0 0-62.256059-24.06373H337.583889a76.999836 76.999836 0 0 0-59.36472 22.454013A85.130444 85.130444 0 0 0 257.36462 314.565962v397.887167a81.285579 81.285579 0 0 0 7.382141 34.983147 91.169446 91.169446 0 0 0 18.92699 26.944816c1.476428 1.435416 3.014374 2.747797 4.572827 4.049925 1.025297 1.127827 1.886547 2.440208 2.973362 3.506517 1.476428 1.435416 3.014374 2.737544 4.572827 4.039672 1.025297 1.127827 1.886547 2.450461 2.973362 3.506517 1.476428 1.435416 3.024627 2.747797 4.572827 4.049925 1.025297 1.127827 1.886547 2.440208 2.973362 3.506517 1.476428 1.435416 3.024627 2.737544 4.572827 4.039672 1.03555 1.127827 1.886547 2.440208 2.973362 3.506517 1.476428 1.435416 3.024627 2.737544 4.572827 4.049925 1.03555 1.117574 1.886547 2.440208 2.983615 3.496264 1.476428 1.435416 3.014374 2.747797 4.572826 4.049925 1.025297 1.127827 1.886547 2.440208 2.973363 3.506517 1.476428 1.435416 3.014374 2.737544 4.562573 4.039672 1.045803 1.127827 1.8968 2.450461 2.983616 3.506517 1.476428 1.435416 3.024627 2.747797 4.572826 4.049925 1.025297 1.127827 1.886547 2.440208 2.973363 3.506517 1.476428 1.435416 3.024627 2.737544 4.572826 4.039672 1.03555 1.127827 1.886547 2.440208 2.973363 3.506517 1.476428 1.435416 3.024627 2.737544 4.572826 4.049924 1.03555 1.127827 1.886547 2.440208 2.973363 3.496265 1.476428 1.435416 3.024627 2.747797 4.572826 4.049924 1.03555 1.127827 1.886547 2.440208 2.983616 3.506518 1.476428 1.435416 3.014374 2.737544 4.562573 4.049924 1.045803 1.117574 1.8968 2.440208 2.983616 3.496264 1.476428 1.435416 3.024627 2.747797 4.572826 4.049925 1.025297 1.127827 1.886547 2.440208 2.973363 3.506517 1.476428 1.435416 3.024627 2.737544 4.572826 4.039672 1.025297 1.127827 1.886547 2.450461 2.973363 3.506517 1.476428 1.435416 3.024627 2.737544 4.572826 4.049925 1.025297 1.127827 1.886547 2.440208 2.973362 3.506517 1.476428 1.435416 3.024627 2.737544 4.572827 4.039672 1.03555 1.127827 1.886547 2.440208 2.973362 3.506517 1.476428 1.435416 3.024627 2.737544 4.572827 4.039672 1.03555 1.127827 1.886547 2.450461 2.983615 3.506517 1.476428 1.435416 3.014374 2.747797 4.562574 4.049925 1.045803 1.127827 1.8968 2.440208 2.983615 3.506517 1.476428 1.435416 3.024627 2.737544 4.572827 4.039672 1.025297 1.127827 1.886547 2.450461 2.973362 3.506517 1.476428 1.435416 3.024627 2.737544 4.572827 4.049925 1.025297 1.127827 1.886547 2.440208 2.973362 3.506517 1.476428 1.435416 3.024627 2.737544 4.572827 4.039672 1.03555 1.127827 1.886547 2.450461 2.973362 3.506517 1.476428 1.435416 3.024627 2.737544 4.572827 4.049925 1.03555 1.117574 1.886547 2.440208 2.983615 3.496264 1.476428 1.435416 3.014374 2.747797 4.572827 4.049925 1.025297 1.127827 1.886547 2.440208 2.973362 3.506517 1.476428 1.435416 3.014374 2.737544 4.572826 4.039672 1.025297 1.127827 1.886547 2.450461 2.973363 3.506517 1.476428 1.435416 3.024627 2.747797 4.572826 4.049924 1.025297 1.127827 1.886547 2.440208 2.973363 3.506518 1.476428 1.435416 3.024627 2.737544 4.572826 4.039671 1.03555 1.127827 1.886547 2.450461 2.973363 3.506518 1.476428 1.435416 3.024627 2.737544 4.572826 4.049924 1.03555 1.127827 1.886547 2.440208 2.973363 3.506518 1.476428 1.435416 3.024627 2.737544 4.572826 4.039671 1.03555 1.127827 1.8968 2.440208 2.983616 3.506517 1.476428 1.435416 3.014374 2.737544 4.562573 4.039672 1.045803 1.127827 1.8968 2.450461 2.983616 3.506517 1.476428 1.435416 3.024627 2.747797 4.572826 4.049925 1.025297 1.127827 1.886547 2.440208 2.973363 3.506517 1.476428 1.435416 3.024627 2.737544 4.572826 4.039672 1.025297 1.127827 1.886547 2.450461 2.973363 3.506517 1.476428 1.435416 3.024627 2.737544 4.572826 4.049925 1.03555 1.127827 1.886547 2.440208 2.973362 3.506517 1.476428 1.435416 3.024627 2.737544 4.572827 4.039672 1.025297 1.107321 1.866041 2.388943 2.932351 3.444999A513.530461 513.530461 0 0 0 1024.307589 529.775889z" fill="#666666" p-id="18242"></path><path d="M693.751704 231.783449a78.527529 78.527529 0 0 1 62.256059 24.06373 85.776381 85.776381 0 0 1 21.172391 58.718783v340.778101a39.063831 39.063831 0 0 1-13.472408 28.872375L656.533408 786.899974a46.845839 46.845839 0 0 1-14.118345 8.981605 47.553294 47.553294 0 0 1-14.764283 1.927559H339.521701a76.794776 76.794776 0 0 1-29.528565-6.090267 82.782513 82.782513 0 0 1-26.309132-17.327526 91.169446 91.169446 0 0 1-18.92699-26.965322 81.285579 81.285579 0 0 1-7.382141-34.962641V314.565962a85.130444 85.130444 0 0 1 20.854549-60.318247 77.010089 77.010089 0 0 1 59.36472-22.464266zM558.986612 634.161418a19.716469 19.716469 0 0 0 19.89077-19.89077 18.92699 18.92699 0 0 0-5.772424-14.436187 19.78824 19.78824 0 0 0-14.118346-5.464835H358.120596a19.78824 19.78824 0 0 0-14.118345 5.464835 18.92699 18.92699 0 0 0-5.782677 14.436187 19.726722 19.726722 0 0 0 19.890769 19.89077z m80.21927-120.646746a19.89077 19.89077 0 1 0 0-39.78154H358.120596a19.89077 19.89077 0 1 0 0 39.78154z m39.781539-120.011062a19.214073 19.214073 0 0 0 14.128599-5.772425 19.9933 19.9933 0 0 0 5.772424-14.764282 19.726722 19.726722 0 0 0-19.89077-19.89077H358.120596a19.726722 19.726722 0 0 0-19.890769 19.89077 19.983047 19.983047 0 0 0 5.772424 14.764282 19.203821 19.203821 0 0 0 14.118345 5.772425z m0 0" fill="#FFFFFF" p-id="18243"></path><path d="M766.834903 521.778569l80.793436 80.77293-213.118319 213.11832-80.783184-80.783183z" fill="#FFFFFF" p-id="18244"></path><path d="M752.603775 536.009697l80.77293 80.783183-184.635557 184.635558-80.77293-80.783183z" fill="#FFCC00" p-id="18245"></path><path d="M827.460739 490.076373l51.84929 51.84929a20.454683 20.454683 0 0 1 0 28.913387l-31.691943 31.702196-80.783183-80.77293 31.702196-31.691943a20.454683 20.454683 0 0 1 28.913387 0z" fill="#1296db" p-id="18246" data-spm-anchor-id="a313x.search_index.0.i15.103b3a81otAZea" class=""></path><path d="M553.726836 734.876383l-17.676127 17.68638-13.626202 94.399133 94.399132-13.626203 17.676128-17.676127-80.772931-80.783183z" fill="#cdcdcd" p-id="18247" data-spm-anchor-id="a313x.search_index.0.i16.103b3a81otAZea" class="selected"></path></svg>